<svg xmlns="http://www.w3.org/2000/svg" viewBox="0 0 264 286">
  <path d="M 263.854 142.981 C 263.854 157.485 264.237 172.001 263.762 186.494 C 263.043 208.118 253.016 224.795 234.458 235.809 C 210.266 250.175 185.877 264.217 161.291 277.912 C 142.13 288.58 122.297 288.741 103.089 278.12 C 78.237 264.355 53.581 250.221 29.215 235.636 C 9.718 223.963 0.108 206.176 0.05 183.466 C -0.031 156.526 -0.007 129.586 0.074 102.646 C 0.143 78.676 10.819 60.774 31.58 48.812 C 54.949 35.348 78.237 21.734 101.721 8.489 C 121.717 -2.791 142.095 -2.837 162.091 8.396 C 186.155 21.918 210.069 35.695 233.844 49.702 C 253.515 61.294 263.588 78.803 263.889 101.641 C 264.075 115.428 263.924 129.216 263.924 142.993 C 263.901 142.993 263.878 142.993 263.854 142.993 L 263.854 142.981 Z M 230.389 161.6 C 233.797 156.272 237.02 151.175 240.3 146.125 C 242.595 142.588 244.346 138.809 244.427 134.579 C 244.589 125.402 245.03 116.18 244.427 107.038 C 243.673 95.596 231.606 89.621 221.579 95.215 C 218.751 96.798 215.958 98.462 213.141 100.08 C 192.113 112.169 171.098 124.27 150.059 136.336 C 142.999 140.381 139.568 146.425 139.568 154.515 C 139.591 184.599 139.568 214.682 139.58 244.754 C 139.58 256.589 150.14 262.853 160.387 256.994 C 182.701 244.246 204.899 231.313 227.225 218.589 C 243.337 209.401 246.757 193.879 243.778 177.641 C 242.41 170.175 237.356 165.136 230.378 161.588 L 230.389 161.6 Z" fill="#1433D6"/>
</svg>
